<svg width="64" height="64" viewBox="0 0 64 64" xmlns="http://www.w3.org/2000/svg">
    <title>
        logo
    </title>
    <g fill="none" fill-rule="evenodd">
        <circle fill="#FFF" cx="32" cy="32" r="32"/>
        <path d="M31.95 51.84a19.906 19.906 0 0 1-14.106-5.834A19.842 19.842 0 0 1 12 31.92V12h19.951c5.509 0 10.496 2.23 14.107 5.835a19.843 19.843 0 0 1 5.844 14.085c0 4.23-1.363 8.35-3.855 11.756l8.241 8.165h-8.257l-5.988-5.933-2.055-2.035 2.032-2.06c2.63-2.668 4.049-6.151 4.049-9.893 0-3.892-1.58-7.417-4.135-9.968a14.087 14.087 0 0 0-9.983-4.128H17.833V31.92c0 3.893 1.58 7.418 4.135 9.969a14.099 14.099 0 0 0 7.067 3.826V32.29h-4.858v-5.824h15.548v5.824h-4.858v19.55h-2.916z" fill="#A89073"/>
    </g>
</svg>
